<svg id="Capa_1" enable-background="new 0 0 512 512" height="512" viewBox="0 0 512 512" width="512" xmlns="http://www.w3.org/2000/svg" xmlns:xlink="http://www.w3.org/1999/xlink"><linearGradient id="SVGID_1_" gradientUnits="userSpaceOnUse" x1="256" x2="256" y1="512" y2="0"><stop offset="0" stop-color="#00b59c"/><stop offset="1" stop-color="#9cffac"/></linearGradient><g><g><path d="m506.006 183.006c-.01-.008-.019-.017-.03-.025l-241-180c-5.323-3.976-12.629-3.976-17.952 0l-241 180c-3.698 2.721-6.024 7.337-6.024 12.018v302c0 8.284 6.716 15 15 15h482c8.284 0 15-6.716 15-15v-302c0-4.553-2.178-9.121-5.994-11.993zm-250.006-149.284 217.136 162.176-217.136 189.206-217.136-189.206zm226 448.278h-452v-254.034l216.146 188.343c2.824 2.46 6.339 3.691 9.854 3.691s7.03-1.23 9.854-3.691l216.146-188.343zm-181-167v-105h30c5.82 0 11.115-3.367 13.584-8.638s1.666-11.494-2.061-15.965l-75-90c-2.85-3.42-7.071-5.397-11.523-5.397s-8.673 1.978-11.523 5.397l-75 90c-3.726 4.471-4.529 10.694-2.061 15.965 2.469 5.271 7.764 8.638 13.584 8.638h30v105c0 8.284 6.716 15 15 15h60c8.284 0 15-6.716 15-15zm-30-120v105h-30v-105c0-8.284-6.716-15-15-15h-12.975l42.975-51.569 42.975 51.569h-12.975c-8.284 0-15 6.716-15 15z" fill="url(#SVGID_1_)"/></g></g></svg>